<svg width="36" height="36" viewBox="0 0 36 36" fill="none" xmlns="http://www.w3.org/2000/svg">
<path fill-rule="evenodd" clip-rule="evenodd" d="M18 33C10.929 33 7.3935 33 5.196 30.8025C3 28.608 3 25.071 3 18C3 10.929 3 7.3935 5.196 5.196C7.395 3 10.929 3 18 3C25.071 3 28.6065 3 30.8025 5.196C33 7.395 33 10.929 33 18C33 25.071 33 28.6065 30.8025 30.8025C28.608 33 25.071 33 18 33ZM13.455 13.455C13.6659 13.2443 13.9519 13.126 14.25 13.126C14.5481 13.126 14.8341 13.2443 15.045 13.455L18 16.41L20.955 13.455C21.1683 13.2563 21.4503 13.1481 21.7418 13.1532C22.0332 13.1584 22.3113 13.2764 22.5174 13.4826C22.7236 13.6887 22.8416 13.9668 22.8468 14.2582C22.8519 14.5497 22.7437 14.8317 22.545 15.045L19.59 18L22.545 20.955C22.6555 21.058 22.7442 21.1822 22.8057 21.3202C22.8672 21.4582 22.9002 21.6072 22.9029 21.7582C22.9056 21.9093 22.8778 22.0593 22.8212 22.1994C22.7646 22.3395 22.6804 22.4667 22.5736 22.5736C22.4667 22.6804 22.3395 22.7646 22.1994 22.8212C22.0593 22.8778 21.9093 22.9056 21.7582 22.9029C21.6072 22.9002 21.4582 22.8672 21.3202 22.8057C21.1822 22.7442 21.058 22.6555 20.955 22.545L18 19.59L15.045 22.545C14.942 22.6555 14.8178 22.7442 14.6798 22.8057C14.5418 22.8672 14.3928 22.9002 14.2418 22.9029C14.0907 22.9056 13.9407 22.8778 13.8006 22.8212C13.6605 22.7646 13.5333 22.6804 13.4264 22.5736C13.3196 22.4667 13.2354 22.3395 13.1788 22.1994C13.1222 22.0593 13.0944 21.9093 13.0971 21.7582C13.0998 21.6072 13.1328 21.4582 13.1943 21.3202C13.2558 21.1822 13.3445 21.058 13.455 20.955L16.41 18L13.455 15.045C13.2443 14.8341 13.126 14.5481 13.126 14.25C13.126 13.9519 13.2443 13.6659 13.455 13.455Z" fill="#666666"/>
</svg>
