<svg width="25" height="25" viewBox="0 0 25 25" fill="none" xmlns="http://www.w3.org/2000/svg">
<path d="M21.8146 3.18543C24.3875 5.7573 22.3021 12.0125 17.1583 17.1573C12.0125 22.3021 5.7573 24.3865 3.18542 21.8146C0.612504 19.2417 2.69792 12.9875 7.84271 7.84272C12.9875 2.69793 19.2427 0.613551 21.8146 3.18543ZM3.18542 3.18543C0.612504 5.75834 2.69792 12.0136 7.84167 17.1573C12.9875 22.3021 19.2427 24.3865 21.8146 21.8146C24.3875 19.2427 22.3021 12.9875 17.1573 7.84272C12.0125 2.69793 5.7573 0.613551 3.18542 3.18543Z" stroke="black" stroke-width="1.5"/>
<path d="M15.1041 12.5C15.1041 13.1907 14.8297 13.8531 14.3413 14.3414C13.853 14.8298 13.1906 15.1042 12.4999 15.1042C11.8093 15.1042 11.1469 14.8298 10.6585 14.3414C10.1701 13.8531 9.89575 13.1907 9.89575 12.5C9.89575 11.8093 10.1701 11.147 10.6585 10.6586C11.1469 10.1702 11.8093 9.89584 12.4999 9.89584C13.1906 9.89584 13.853 10.1702 14.3413 10.6586C14.8297 11.147 15.1041 11.8093 15.1041 12.5Z" stroke="black" stroke-width="1.5"/>
</svg>
