<svg width="30" height="30" viewBox="0 0 30 30" fill="none" xmlns="http://www.w3.org/2000/svg">
<path d="M13.1269 11.3729C14.7049 11.373 16.23 11.9416 17.4229 12.9747C18.6158 14.0078 19.3964 15.4361 19.6219 16.9979H19.6875C20.9307 16.9979 22.123 17.4918 23.002 18.3708C23.8811 19.2499 24.375 20.4422 24.375 21.6854C24.375 22.9286 23.8811 24.1209 23.002 25C22.123 25.879 20.9307 26.3729 19.6875 26.3729H6.56248C5.31928 26.3729 4.127 25.879 3.24792 25C2.36884 24.1209 1.87498 22.9286 1.87498 21.6854C1.87498 20.4422 2.36884 19.2499 3.24792 18.3708C4.127 17.4918 5.31928 16.9979 6.56248 16.9979H6.63186C6.85724 15.4364 7.63764 14.0083 8.8301 12.9753C10.0226 11.9423 11.5473 11.3734 13.125 11.3729M13.5225 5.41041C13.4646 5.3017 13.4287 5.18266 13.4169 5.06008C13.405 4.9375 13.4174 4.81379 13.4534 4.696C13.4893 4.57822 13.5481 4.46867 13.6264 4.37361C13.7047 4.27854 13.801 4.19984 13.9097 4.14197C14.0184 4.08411 14.1374 4.04822 14.26 4.03637C14.3826 4.02451 14.5063 4.03691 14.6241 4.07286C14.7419 4.10882 14.8514 4.16762 14.9465 4.24591C15.0415 4.3242 15.1202 4.42045 15.1781 4.52916L15.9769 6.03478C16.0937 6.25433 16.1186 6.51131 16.046 6.74919C15.9734 6.98707 15.8092 7.18636 15.5897 7.30322C15.3701 7.42008 15.1131 7.44494 14.8753 7.37233C14.6374 7.29972 14.4381 7.13558 14.3212 6.91603L13.5225 5.41041ZM20.595 4.00978C20.6311 3.89196 20.69 3.7824 20.7684 3.68735C20.8468 3.59231 20.9432 3.51364 21.052 3.45583C21.1608 3.39803 21.28 3.36222 21.4026 3.35046C21.5253 3.3387 21.649 3.35121 21.7669 3.38728C21.8847 3.42336 21.9942 3.48228 22.0893 3.5607C22.1843 3.63911 22.263 3.73548 22.3208 3.8443C22.3786 3.95312 22.4144 4.07225 22.4262 4.19491C22.4379 4.31757 22.4254 4.44134 22.3894 4.55916L21.8887 6.19041C21.8131 6.42478 21.6483 6.61998 21.43 6.73385C21.2116 6.84771 20.9572 6.87109 20.7218 6.79893C20.4863 6.72676 20.2887 6.56486 20.1717 6.3482C20.0546 6.13153 20.0275 5.87752 20.0962 5.64103L20.595 4.00978ZM24.375 13.2479C24.375 14.3804 24.0394 15.4342 23.4637 16.3173C22.7756 15.8317 21.9881 15.4735 21.1387 15.2842C20.6514 13.8177 19.7716 12.5128 18.5948 11.5112C17.418 10.5096 15.9892 9.84958 14.4637 9.60291C15.2095 8.72542 16.2065 8.09796 17.3203 7.80526C18.434 7.51257 19.6107 7.56875 20.6915 7.96622C21.7723 8.3637 22.7051 9.08331 23.3638 10.0279C24.0225 10.9724 24.3755 12.0964 24.375 13.2479ZM26.5875 8.02416C26.6962 7.9663 26.8152 7.93041 26.9378 7.91855C27.0604 7.9067 27.1841 7.9191 27.3019 7.95505C27.4197 7.991 27.5292 8.04981 27.6243 8.1281C27.7193 8.20639 27.7981 8.30264 27.8559 8.41135C27.9138 8.52006 27.9497 8.6391 27.9615 8.76168C27.9734 8.88426 27.961 9.00797 27.925 9.12575C27.8891 9.24354 27.8303 9.35309 27.752 9.44815C27.6737 9.54321 27.5774 9.62192 27.4687 9.67978L25.9631 10.4785C25.7436 10.5954 25.4866 10.6203 25.2487 10.5476C25.0108 10.475 24.8115 10.3109 24.6947 10.0913C24.5778 9.8718 24.5529 9.61482 24.6256 9.37694C24.6982 9.13906 24.8623 8.93977 25.0819 8.82291L26.5875 8.02416ZM25.8075 16.3923C25.5731 16.3167 25.3779 16.1519 25.264 15.9335C25.1502 15.7152 25.1268 15.4608 25.199 15.2253C25.2711 14.9899 25.433 14.7923 25.6497 14.6752C25.8664 14.5582 26.1204 14.5311 26.3569 14.5998L27.9881 15.0985C28.1074 15.1332 28.2187 15.1913 28.3154 15.2693C28.4121 15.3474 28.4923 15.4439 28.5514 15.5532C28.6105 15.6625 28.6472 15.7825 28.6595 15.9062C28.6718 16.0298 28.6593 16.1547 28.6229 16.2735C28.5865 16.3923 28.5268 16.5027 28.4474 16.5983C28.3679 16.6938 28.2702 16.7726 28.16 16.8301C28.0498 16.8875 27.9293 16.9225 27.8055 16.933C27.6817 16.9434 27.557 16.9292 27.4387 16.891L25.8075 16.3923Z" fill="white"/>
</svg>
