<svg width="25" height="25" viewBox="0 0 25 25" fill="none" xmlns="http://www.w3.org/2000/svg">
<path fill-rule="evenodd" clip-rule="evenodd" d="M18.7499 2.08331C19.0052 2.08338 19.2516 2.17719 19.4423 2.34695C19.633 2.5167 19.7547 2.75057 19.7843 3.00415L19.7916 3.12498V5.72915C19.7916 5.98429 19.6979 6.23054 19.5283 6.4212C19.3588 6.61186 19.1252 6.73367 18.8718 6.76352L18.7499 6.77081H17.052C17.302 7.48956 17.652 8.05102 18.0937 8.38019L18.2437 8.48227C18.361 8.55265 18.4633 8.64545 18.5447 8.75536C18.6261 8.86527 18.6851 8.99015 18.7183 9.12286C18.7515 9.25557 18.7582 9.39351 18.7381 9.52882C18.7179 9.66412 18.6713 9.79414 18.601 9.91144C18.5306 10.0287 18.4378 10.131 18.3279 10.2125C18.218 10.2939 18.0931 10.3529 17.9604 10.3861C17.8277 10.4193 17.6897 10.426 17.5544 10.4058C17.4191 10.3857 17.2891 10.3391 17.1718 10.2687C16.2416 9.7104 15.6405 8.82081 15.2541 7.8979L15.1603 7.66561L14.5833 8.24373V9.99269C14.5832 10.2486 14.6774 10.4955 14.8478 10.6864L14.9385 10.776L17.6822 13.1771C17.9912 13.4474 18.2439 13.7759 18.4258 14.144C18.6078 14.512 18.7154 14.9122 18.7426 15.3219L18.7499 15.5291V19.7916C18.75 20.5887 18.4454 21.3557 17.8986 21.9357C17.3517 22.5156 16.604 22.8647 15.8083 22.9114L15.6249 22.9166H8.33325C7.53616 22.9167 6.76917 22.6121 6.18923 22.0653C5.60929 21.5185 5.26022 20.7707 5.21346 19.975L5.20825 19.7916V15.5291C5.20834 15.1186 5.28934 14.712 5.44663 14.3327C5.60392 13.9534 5.8344 13.6089 6.12492 13.3187L6.27492 13.1771L9.01867 10.776C9.21134 10.6075 9.33519 10.3738 9.36658 10.1198L9.37492 9.99269V8.38956L8.36138 7.75727C6.47075 6.57498 6.43117 3.8354 8.28638 2.59894C8.727 2.30519 9.23638 2.13019 9.76242 2.09165L9.9895 2.08331H18.7499ZM7.29159 16.5312V19.7916C7.29159 20.0679 7.40133 20.3329 7.59668 20.5282C7.79203 20.7236 8.05698 20.8333 8.33325 20.8333H15.6249C15.9012 20.8333 16.1661 20.7236 16.3615 20.5282C16.5568 20.3329 16.6666 20.0679 16.6666 19.7916V18.8927C15.6645 18.9656 14.8124 18.8802 14.0499 18.6854C13.2541 18.4833 12.5853 18.1698 11.9978 17.8604L11.4801 17.5812C10.7551 17.1854 10.1468 16.8583 9.39471 16.6666C8.83221 16.5239 8.16242 16.451 7.29159 16.5312ZM12.4989 8.85415H11.4572V9.99269C11.457 10.438 11.3617 10.8782 11.1775 11.2836C10.9934 11.6891 10.7247 12.0506 10.3895 12.3437L8.02284 14.4146C8.65852 14.4143 9.29181 14.4927 9.90825 14.6479C10.6895 14.8479 11.4145 15.1864 12.1239 15.5625L12.477 15.7521C13.202 16.1479 13.8103 16.475 14.5624 16.6666C15.1239 16.8094 15.7958 16.8823 16.6655 16.8021V15.5291C16.6655 15.3806 16.6337 15.2337 16.5723 15.0984C16.5109 14.9631 16.4212 14.8425 16.3093 14.7448L13.5655 12.3437C13.2307 12.0504 12.9624 11.6888 12.7786 11.2834C12.5949 10.8779 12.4998 10.4379 12.4999 9.99269L12.4989 8.85415ZM14.5343 4.16665H9.9895C9.77522 4.16642 9.5667 4.23597 9.39546 4.36478C9.22422 4.49359 9.09958 4.67466 9.04038 4.8806C8.98119 5.08654 8.99066 5.30616 9.06737 5.50624C9.14408 5.70631 9.28385 5.87598 9.46554 5.98956L10.7155 6.77081H13.1103L14.278 5.60311C14.3822 5.49894 14.493 5.40276 14.6103 5.31456C14.5658 4.93344 14.5404 4.55032 14.5343 4.16665ZM17.7083 4.16665H16.6176L16.6301 4.50727L16.6426 4.68748H17.7083V4.16665Z" fill="black"/>
</svg>
