<svg width="25" height="25" viewBox="0 0 25 25" fill="none" xmlns="http://www.w3.org/2000/svg">
<path fill-rule="evenodd" clip-rule="evenodd" d="M15.8114 4.77171C17.1352 3.26022 19.6227 3.36404 20.785 5.09326C20.8745 5.22649 20.9535 5.36639 21.021 5.51166L21.7337 7.04444C21.9077 7.4187 22.1596 7.75276 22.4732 8.02491L23.7611 9.1428C24.1226 9.45653 24.4023 9.85111 24.577 10.2934C25.2067 11.8884 24.3395 13.6761 22.684 14.1955L21.8922 14.4439C21.9267 14.502 21.9604 14.5608 21.993 14.6205L25 20.1276L18.7009 20.9051C18.571 20.9211 18.4417 20.9326 18.3131 20.9399C19.0169 23.0102 17.3644 25.1371 15.1383 24.9931C14.9764 24.9826 14.8156 24.9597 14.6573 24.9247L12.9874 24.5552C12.5797 24.4649 12.1572 24.4602 11.7474 24.5411L10.0644 24.8738C9.59201 24.9672 9.10376 24.9476 8.64068 24.8166C6.97063 24.3444 6.05145 22.5822 6.63425 20.9699L6.64598 20.9373C6.5309 20.93 6.41522 20.9194 6.29912 20.9051L0 20.1276L3.00705 14.6205C3.03528 14.5688 3.06429 14.5177 3.09389 14.4673L2.22773 14.1955C0.572188 13.6761 -0.29507 11.8884 0.334679 10.2934C0.509299 9.85111 0.789109 9.45654 1.15058 9.1428L2.43849 8.02491C2.75204 7.75276 3.00402 7.4187 3.17803 7.04444L3.89063 5.51166C3.95817 5.36638 4.03709 5.22649 4.12664 5.09326C5.3001 3.34747 7.8242 3.25837 9.13799 4.81557L12.49 0L15.8114 4.77171ZM12.5 16.7306C11.9642 18.8383 10.2183 20.443 8.07892 20.849L7.87763 21.406C7.55022 22.3117 8.06664 23.3018 9.00487 23.5671C9.26503 23.6406 9.53931 23.6516 9.80468 23.5992L11.4878 23.2665C12.0789 23.1497 12.6884 23.1565 13.2767 23.2867L14.9466 23.6562C15.0382 23.6765 15.1312 23.6897 15.2248 23.6958C16.5254 23.78 17.4876 22.5238 17.0484 21.315L16.8759 20.8404C14.7572 20.4205 13.032 18.8235 12.5 16.7306ZM10.6782 13.8828C9.38334 15.2652 7.37398 15.8102 5.51501 15.2269L4.39079 14.8742C4.31197 14.99 4.23801 15.1107 4.16944 15.2363L2.07426 19.0734L6.46326 19.6151C6.68204 19.6421 6.89874 19.6526 7.11213 19.6477L7.79145 17.7685C8.37141 16.1641 9.73888 15.0036 11.3657 14.6365L11.3716 14.3482L10.6782 13.8828ZM13.6284 14.3482L13.6345 14.6475C15.247 15.0275 16.5862 16.1849 17.1588 17.7609L17.844 19.6464C18.0715 19.6539 18.3029 19.644 18.5367 19.6151L22.9257 19.0734L20.8305 15.2363C20.7574 15.1024 20.6782 14.9741 20.5935 14.8514L19.3966 15.2269C17.554 15.8051 15.5636 15.2747 14.2677 13.9191L13.6284 14.3482ZM11.3023 16.0038C10.2672 16.3502 9.4176 17.1458 9.03487 18.2046L8.62401 19.3411C10.0178 18.7879 11.0707 17.539 11.3023 16.0038ZM13.7002 16.0209C13.934 17.5289 14.9609 18.7584 16.3234 19.3198L15.9161 18.199C15.5405 17.1652 14.7159 16.3766 13.7002 16.0209ZM19.5703 13.808C18.4026 12.9676 16.8545 12.7404 15.4688 13.2569C16.4159 14.081 17.7518 14.3786 18.996 13.9882L19.5703 13.808ZM9.46875 13.2342C8.08856 12.7435 6.55627 12.9838 5.40291 13.8273L5.9156 13.9882C7.17119 14.3822 8.5202 14.0755 9.46875 13.2342ZM8.25493 5.8231C7.54427 4.74688 5.94671 4.74049 5.22717 5.81097C5.17538 5.88802 5.12974 5.96892 5.09068 6.05294L4.37803 7.58576C4.12699 8.12573 3.76347 8.60766 3.3111 9.0003L2.02319 10.1182C1.82012 10.2944 1.66292 10.5161 1.56481 10.7646C1.21102 11.6607 1.69825 12.665 2.62832 12.9568L3.93775 13.3676C5.28007 12.0084 7.23877 11.4244 9.10043 11.7874C7.79617 10.186 7.48076 7.94654 8.38867 6.02562L8.25493 5.8231ZM19.6845 5.81097C18.9649 4.7405 17.3674 4.74689 16.6568 5.8231L16.5542 5.97838C17.4662 7.92037 17.1475 10.1809 15.8331 11.8008C17.7048 11.4126 19.6835 11.9862 21.0413 13.3465L22.2834 12.9568C23.2134 12.665 23.7007 11.6607 23.3469 10.7646C23.2518 10.5239 23.1013 10.3083 22.9074 10.1348L22.8885 10.1182L21.6005 9.0003C21.1482 8.60766 20.7847 8.12572 20.5336 7.58576L19.821 6.05294C19.7819 5.96891 19.7363 5.88803 19.6845 5.81097ZM9.93939 5.96341C9.93642 5.96768 9.93351 5.972 9.93055 5.97628L11.1934 7.88871C12.0492 9.18479 12.2205 10.7772 11.7141 12.1902L12.4899 12.6039L13.2085 12.2207C12.6887 10.8002 12.8563 9.19412 13.7183 7.88871L15.0142 5.92607C15.0066 5.91488 14.9989 5.90363 14.9912 5.89249L12.4899 2.29908L9.93939 5.96341ZM14.8247 8.59753C14.2546 9.46089 14.098 10.5033 14.3512 11.464C15.5061 10.4192 15.9892 8.83752 15.6445 7.35601L14.8247 8.59753ZM9.2975 7.40198C8.95966 8.85637 9.43429 10.4089 10.5681 11.4344C10.8103 10.4819 10.6512 9.45204 10.087 8.59753L9.2975 7.40198Z" fill="black"/>
</svg>
