<svg width="30" height="30" viewBox="0 0 30 30" fill="none" xmlns="http://www.w3.org/2000/svg">
<path d="M2.5 27.5V25C2.5 25 8.75 22.5 15 22.5C21.25 22.5 27.5 25 27.5 25V27.5H2.5ZM14.125 11.375C12.625 6.50001 5 7.62501 5 7.62501C5 7.62501 5.25 17.375 12.375 15.875C11.875 12.25 10 11.25 10 11.25C13.5 11.25 13.75 15.5 13.75 15.5V21.25H16.25V16C16.25 16 16.25 11.125 20 9.87501C20 9.87501 17.5 13.625 17.5 16.125C26.25 17 26.25 5.00001 26.25 5.00001C26.25 5.00001 15.125 3.75001 14.125 11.375Z" fill="white"/>
</svg>
