<svg width="25" height="25" viewBox="0 0 25 25" fill="none" xmlns="http://www.w3.org/2000/svg">
<path d="M13.2812 11.4583C13.2812 11.2511 13.1989 11.0523 13.0524 10.9058C12.9059 10.7593 12.7072 10.677 12.5 10.677C12.2928 10.677 12.0941 10.7593 11.9476 10.9058C11.8011 11.0523 11.7188 11.2511 11.7188 11.4583V13.5416C11.7188 13.7488 11.8011 13.9475 11.9476 14.094C12.0941 14.2405 12.2928 14.3228 12.5 14.3228C12.7072 14.3228 12.9059 14.2405 13.0524 14.094C13.1989 13.9475 13.2812 13.7488 13.2812 13.5416V11.4583Z" fill="white"/>
<path fill-rule="evenodd" clip-rule="evenodd" d="M14.2969 2.11153L16.8323 2.53444C18.0354 2.73444 19.0115 2.89694 19.774 3.12403C20.5687 3.36153 21.225 3.69278 21.7302 4.28861C22.2354 4.88444 22.4552 5.58757 22.5573 6.41049C22.6562 7.20007 22.6562 8.18965 22.6562 9.41049V15.5907C22.6562 16.8105 22.6562 17.799 22.5573 18.5897C22.4552 19.4126 22.2354 20.1147 21.7302 20.7115C21.225 21.3074 20.5687 21.6386 19.774 21.8751C19.0115 22.1032 18.0354 22.2657 16.8323 22.4657L14.2969 22.8886C13.2208 23.0678 12.3302 23.2167 11.6198 23.2334C10.874 23.2511 10.1833 23.1313 9.60625 22.6428C9.11979 22.2313 8.87917 21.6949 8.75208 21.0938H8.27708C7.09792 21.0938 6.13333 21.0938 5.37083 20.9917C4.57604 20.8844 3.88646 20.6532 3.33542 20.1022C2.78437 19.5511 2.55313 18.8626 2.44583 18.0657C2.34375 17.3053 2.34375 16.3407 2.34375 15.1594V9.84069C2.34375 8.66049 2.34375 7.69694 2.44583 6.93444C2.55313 6.13965 2.78437 5.45007 3.33542 4.89903C3.88646 4.34799 4.575 4.11674 5.37187 4.00944C6.13229 3.90736 7.09687 3.90736 8.27812 3.90736H8.75312C8.87812 3.30632 9.11979 2.76986 9.60729 2.3584C10.1833 1.86882 10.874 1.75007 11.6198 1.76778C12.3302 1.78444 13.2208 1.9334 14.2969 2.11257M8.59375 18.0574C8.59375 18.5949 8.59375 19.0865 8.60521 19.5313H8.33333C7.08333 19.5313 6.225 19.5292 5.58021 19.4428C4.95729 19.3594 4.65312 19.2094 4.44062 18.9969C4.22812 18.7844 4.07812 18.4803 3.99479 17.8574C3.90833 17.2126 3.90625 16.3542 3.90625 15.1042V9.8959C3.90625 8.6459 3.90833 7.78757 3.99479 7.14278C4.07812 6.51986 4.22812 6.21569 4.44062 6.00319C4.65312 5.79069 4.95729 5.64069 5.58021 5.55736C6.225 5.4709 7.08333 5.46882 8.33333 5.46882H8.60521C8.59375 5.91361 8.59375 6.40528 8.59375 6.94278V18.0574ZM11.5823 3.32819C11.0167 3.31465 10.7771 3.41361 10.6167 3.54903C10.4563 3.68444 10.3198 3.90528 10.2406 4.46569C10.1573 5.0459 10.1562 5.83653 10.1562 7.00215V17.998C10.1562 19.1636 10.1583 19.9542 10.2406 20.5355C10.3198 21.0949 10.4563 21.3157 10.6167 21.4511C10.7771 21.5865 11.0167 21.6844 11.5823 21.6709C12.1688 21.6574 12.949 21.5292 14.0979 21.3376L16.525 20.9334C17.7906 20.7219 18.6698 20.574 19.3281 20.3782C19.9656 20.1886 20.3031 19.9782 20.5385 19.7011C20.774 19.423 20.924 19.0563 21.0073 18.3959C21.0927 17.7147 21.0937 16.823 21.0937 15.5386V9.46153C21.0937 8.17715 21.0927 7.28549 21.0073 6.60424C20.924 5.94382 20.7729 5.57611 20.5385 5.29903C20.3031 5.02194 19.9656 4.81153 19.3281 4.62194C18.6698 4.42611 17.7906 4.27819 16.524 4.06674L14.0979 3.66257C12.949 3.4709 12.1688 3.34278 11.5823 3.32924" fill="white"/>
</svg>
