<svg width="25" height="25" viewBox="0 0 25 25" fill="none" xmlns="http://www.w3.org/2000/svg">
<path d="M19.5312 23.4375C18.8455 23.4759 18.1627 23.3226 17.5592 22.9948C16.9556 22.667 16.4553 22.1777 16.1141 21.5817C15.7729 20.9856 15.6044 20.3064 15.6275 19.62C15.6505 18.9336 15.8642 18.2671 16.2445 17.6953L18.8758 13.6375C18.9467 13.5282 19.0438 13.4383 19.1583 13.3761C19.2727 13.3139 19.401 13.2814 19.5312 13.2814C19.6615 13.2814 19.7898 13.3139 19.9042 13.3761C20.0187 13.4383 20.1158 13.5282 20.1867 13.6375L22.7766 17.6297C23.1904 18.2444 23.4198 18.9646 23.4375 19.7055C23.4123 20.7177 22.9871 21.6787 22.255 22.3781C21.5229 23.0776 20.5435 23.4585 19.5312 23.4375ZM19.5312 15.4977L17.5719 18.518C17.4118 18.8203 17.3216 19.1548 17.308 19.4966C17.2944 19.8385 17.3576 20.179 17.4932 20.4932C17.6287 20.8073 17.833 21.087 18.091 21.3117C18.349 21.5363 18.6542 21.7002 18.984 21.7912C19.3138 21.8822 19.6598 21.898 19.9965 21.8375C20.3333 21.777 20.6521 21.6416 20.9296 21.4415C21.207 21.2413 21.436 20.9814 21.5996 20.6809C21.7633 20.3805 21.8574 20.0471 21.875 19.7055C21.8583 19.2555 21.7106 18.8203 21.45 18.4531L19.5312 15.4977ZM8.59375 18.75H7.03125C7.03539 15.2289 8.43598 11.8531 10.9258 9.36331C13.4156 6.87348 16.7914 5.47289 20.3125 5.46875H23.4375V7.03125H20.3125C17.2056 7.03477 14.2269 8.27054 12.03 10.4675C9.83304 12.6644 8.59727 15.6431 8.59375 18.75Z" fill="black"/>
<path d="M12.5 18.75H10.9375C10.9404 16.2645 11.929 13.8816 13.6866 12.1241C15.4441 10.3665 17.827 9.37789 20.3125 9.375H23.4375V10.9375H20.3125C18.2411 10.9396 16.2552 11.7633 14.7905 13.228C13.3258 14.6927 12.5021 16.6786 12.5 18.75Z" fill="black"/>
<path d="M20.3125 1.56251C16.9819 1.55968 13.7232 2.53078 10.9375 4.35626C8.15177 2.53078 4.89306 1.55968 1.5625 1.56251V3.12501C4.38645 3.12146 7.15804 3.88714 9.57969 5.33985C8.93751 5.85418 8.33309 6.41395 7.77109 7.01485C5.85848 6.00124 3.7271 5.47048 1.5625 5.46876V7.03126C3.35562 7.03056 5.12499 7.44137 6.73438 8.23204C6.24575 8.8611 5.80145 9.52338 5.40469 10.2141C4.19769 9.66588 2.88815 9.3799 1.5625 9.37501V10.9375C2.63903 10.939 3.7034 11.1651 4.6875 11.6016C3.65727 13.8438 3.12425 16.2824 3.125 18.75H4.6875C4.69226 14.6075 6.33998 10.6359 9.26921 7.70672C12.1984 4.77749 16.17 3.12976 20.3125 3.12501H23.4375V1.56251H20.3125Z" fill="black"/>
</svg>
