<svg width="25" height="25" viewBox="0 0 25 25" fill="none" xmlns="http://www.w3.org/2000/svg">
<path d="M12.5 10.4167V14.5834M10.6959 11.4584L14.3042 13.5417M14.3042 11.4584L10.6948 13.5417M7.01254 10.4167V14.5834M5.20837 11.4584L8.81671 13.5417M8.81671 11.4584L5.20837 13.5417M17.9875 10.4167V14.5834M16.1834 11.4584L19.7917 13.5417M19.7917 11.4584L16.1823 13.5417M22.9167 12.5001C22.9167 16.4282 22.9167 18.3928 21.6959 19.6126C20.475 20.8324 18.5115 20.8334 14.5834 20.8334H10.4167C6.48858 20.8334 4.524 20.8334 3.30421 19.6126C2.08442 18.3917 2.08337 16.4282 2.08337 12.5001C2.08337 8.57196 2.08337 6.60737 3.30421 5.38758C4.52504 4.16779 6.48858 4.16675 10.4167 4.16675H14.5834C18.5115 4.16675 20.4761 4.16675 21.6959 5.38758C22.3771 6.06779 22.6782 6.97925 22.8105 8.33341" stroke="#60003A" stroke-width="1.5" stroke-linecap="round"/>
</svg>
