<svg width="25" height="25" viewBox="0 0 25 25" fill="none" xmlns="http://www.w3.org/2000/svg">
<path d="M10.7947 2.51355C10.9072 2.5566 11.0155 2.62153 11.1197 2.70834C11.8836 3.38542 12.6822 4.13195 13.5155 4.94792C14.3489 5.7639 15.126 6.63195 15.8468 7.55209C16.5676 8.47223 17.1926 9.43577 17.7218 10.4427C18.251 11.4497 18.5763 12.4826 18.6978 13.5417C18.7326 13.8368 18.6499 14.0844 18.4499 14.2844C18.2499 14.4844 18.0027 14.584 17.7083 14.5833C17.4138 14.5826 17.1666 14.4826 16.9666 14.2833C16.7666 14.084 16.6405 13.8368 16.5885 13.5417C16.4843 12.9167 16.2978 12.3219 16.0291 11.7573C15.7603 11.1927 15.4433 10.633 15.078 10.0781C14.5572 9.27952 13.9107 8.44202 13.1385 7.56563C12.3662 6.68924 11.4589 5.78195 10.4166 4.84376C8.35061 6.73612 6.79263 8.48091 5.74263 10.0781C4.69263 11.6754 4.16728 13.1076 4.16659 14.375C4.16659 15.7986 4.53568 17.066 5.27388 18.1771C6.01207 19.2882 7.06659 20.0694 8.43742 20.5208C8.83672 20.6597 9.09714 20.8552 9.21867 21.1073C9.3402 21.3594 9.37492 21.6066 9.32283 21.849C9.27075 22.0913 9.14922 22.2997 8.95825 22.474C8.76728 22.6483 8.54158 22.7004 8.28117 22.6302C6.33672 22.1615 4.81763 21.159 3.72388 19.6229C2.63013 18.0868 2.08325 16.3375 2.08325 14.375C2.08325 13.2639 2.33499 12.1573 2.83846 11.0552C3.34193 9.95313 3.97561 8.89827 4.7395 7.89063C5.50339 6.88299 6.33256 5.93681 7.227 5.05209C8.12145 4.16737 8.95027 3.38612 9.71346 2.70834C9.81763 2.62153 9.92631 2.55626 10.0395 2.51251C10.1527 2.46876 10.2784 2.44723 10.4166 2.44792C10.5548 2.44862 10.6808 2.47049 10.7947 2.51355ZM15.1041 20.8333H13.0208V22.1354C13.0208 22.3611 12.9468 22.5479 12.7989 22.6958C12.651 22.8438 12.4645 22.9174 12.2395 22.9167C12.0145 22.916 11.828 22.842 11.6801 22.6948C11.5322 22.5476 11.4583 22.3611 11.4583 22.1354V17.4479C11.4583 17.2222 11.5322 17.0358 11.6801 16.8885C11.828 16.7413 12.0145 16.6674 12.2395 16.6667H15.1041C15.5208 16.6667 15.8853 16.8229 16.1978 17.1354C16.5103 17.4479 16.6666 17.8125 16.6666 18.2292V19.2708C16.6666 19.6875 16.5103 20.0521 16.1978 20.3646C15.8853 20.6771 15.5208 20.8333 15.1041 20.8333ZM19.2708 20.3125V22.1354C19.2708 22.3611 19.1968 22.5479 19.0489 22.6958C18.901 22.8438 18.7145 22.9174 18.4895 22.9167C18.2645 22.916 18.078 22.842 17.9301 22.6948C17.7822 22.5476 17.7083 22.3611 17.7083 22.1354V17.4479C17.7083 17.2222 17.7822 17.0358 17.9301 16.8885C18.078 16.7413 18.2645 16.6674 18.4895 16.6667C18.7145 16.666 18.9013 16.7399 19.0499 16.8885C19.1985 17.0372 19.2721 17.2236 19.2708 17.4479V18.75H21.3541V17.4479C21.3541 17.2222 21.428 17.0358 21.576 16.8885C21.7239 16.7413 21.9103 16.6674 22.1353 16.6667C22.3603 16.666 22.5471 16.7399 22.6958 16.8885C22.8444 17.0372 22.918 17.2236 22.9166 17.4479V22.1354C22.9166 22.3611 22.8426 22.5479 22.6947 22.6958C22.5468 22.8438 22.3603 22.9174 22.1353 22.9167C21.9103 22.916 21.7239 22.842 21.576 22.6948C21.428 22.5476 21.3541 22.3611 21.3541 22.1354V20.3125H19.2708ZM13.0208 19.2708H15.1041V18.2292H13.0208V19.2708Z" fill="black"/>
</svg>
