<svg width="35" height="35" viewBox="0 0 35 35" fill="none" xmlns="http://www.w3.org/2000/svg">
<path d="M4.01778 21.4608L4.77174 24.2783C5.65257 27.5669 6.09445 29.2119 7.0934 30.2779C7.88185 31.1191 8.90187 31.7077 10.0247 31.9696C11.448 32.3021 13.093 31.8617 16.383 30.9808C19.6701 30.1 21.3151 29.6596 22.3811 28.6606C22.4696 28.577 22.5551 28.4915 22.6378 28.404C22.1411 28.3592 21.6474 28.2862 21.159 28.1852C20.144 27.984 18.938 27.6602 17.5117 27.2781L17.3557 27.2358L17.3192 27.2271C15.7676 26.81 14.4711 26.4629 13.4357 26.0896C12.3463 25.6958 11.3576 25.2102 10.5161 24.4227C9.35866 23.3383 8.5487 21.9351 8.18861 20.3904C7.92611 19.269 8.00195 18.1694 8.20611 17.0304C8.40153 15.9381 8.75153 14.6285 9.17153 13.0608L9.95174 10.1529L9.97799 10.0508C7.17799 10.8048 5.70361 11.251 4.7207 12.1712C3.8785 12.9603 3.28927 13.9814 3.02757 15.1054C2.69507 16.5273 3.13549 18.1723 4.01778 21.4608Z" fill="white"/>
<path fill-rule="evenodd" clip-rule="evenodd" d="M30.377 15.626L29.6216 18.4435C28.7393 21.7321 28.2989 23.3771 27.2999 24.4431C26.5117 25.2848 25.4916 25.874 24.3687 26.1362C24.2277 26.1693 24.0843 26.1946 23.9385 26.2121C22.6041 26.3769 20.9751 25.9408 18.0118 25.1475C14.7232 24.2652 13.0782 23.8248 12.0122 22.8258C11.1703 22.0372 10.581 21.0166 10.3191 19.8931C9.98658 18.4698 10.427 16.8262 11.3093 13.5377L12.0632 10.7202L12.4191 9.40041C13.0826 6.97083 13.5289 5.63354 14.3849 4.71916C15.1734 3.87799 16.1934 3.28933 17.3162 3.0275C18.7395 2.695 20.3845 3.13541 23.6745 4.0177C26.9616 4.89854 28.6066 5.33895 29.6726 6.33645C30.5148 7.12549 31.104 8.14661 31.3657 9.27062C31.6982 10.694 31.2578 12.3375 30.377 15.626ZM16.116 14.299C16.1532 14.1602 16.2174 14.0301 16.3049 13.9162C16.3924 13.8022 16.5015 13.7066 16.6259 13.6348C16.7504 13.5631 16.8878 13.5165 17.0302 13.4978C17.1727 13.4792 17.3174 13.4888 17.4562 13.526L24.4999 15.4146C24.6423 15.4483 24.7765 15.5104 24.8945 15.5969C25.0125 15.6835 25.112 15.7929 25.1869 15.9186C25.2619 16.0443 25.3109 16.1838 25.331 16.3287C25.351 16.4737 25.3418 16.6212 25.3039 16.7626C25.2659 16.9039 25.1999 17.0362 25.1099 17.1516C25.0199 17.267 24.9076 17.3632 24.7797 17.4344C24.6518 17.5056 24.511 17.5504 24.3655 17.5662C24.22 17.582 24.0728 17.5684 23.9326 17.5262L16.8889 15.6392C16.6089 15.564 16.3703 15.3807 16.2254 15.1297C16.0805 14.8787 16.0411 14.579 16.116 14.299ZM14.9843 18.5267C15.0595 18.2467 15.2427 18.0081 15.4937 17.8632C15.7447 17.7183 16.043 17.6789 16.323 17.7537L20.5493 18.8869C20.6924 18.9199 20.8274 18.9814 20.9462 19.0677C21.065 19.154 21.1652 19.2634 21.2408 19.3893C21.3165 19.5151 21.366 19.6549 21.3864 19.8004C21.4069 19.9458 21.3978 20.0938 21.3598 20.2357C21.3218 20.3775 21.2556 20.5103 21.1652 20.626C21.0748 20.7417 20.962 20.8381 20.8335 20.9092C20.7051 20.9804 20.5636 21.025 20.4176 21.0404C20.2715 21.0557 20.1239 21.0415 19.9835 20.9985L15.7572 19.8669C15.6184 19.8296 15.4884 19.7654 15.3744 19.6779C15.2605 19.5904 15.1649 19.4813 15.0931 19.3569C15.0213 19.2324 14.9748 19.0951 14.9561 18.9526C14.9374 18.8101 14.947 18.6654 14.9843 18.5267Z" fill="white"/>
</svg>
