<svg width="25" height="25" viewBox="0 0 25 25" fill="none" xmlns="http://www.w3.org/2000/svg">
<path fill-rule="evenodd" clip-rule="evenodd" d="M14.2793 2.15833C13.9093 2 13.4393 2 12.5003 2C11.5613 2 11.0923 2 10.7213 2.15833C10.4772 2.26223 10.2552 2.4154 10.0682 2.60901C9.88109 2.80262 9.73263 3.03285 9.63132 3.28646C9.53732 3.51875 9.50132 3.79063 9.48632 4.18542C9.47918 4.47136 9.40238 4.75071 9.26314 4.99725C9.1239 5.24378 8.92679 5.4494 8.69032 5.59479C8.44906 5.73448 8.17786 5.80848 7.90184 5.80994C7.62582 5.8114 7.35392 5.74026 7.11132 5.60313C6.77332 5.41771 6.52832 5.31563 6.28632 5.28229C5.7569 5.21034 5.22158 5.35854 4.79632 5.69479C4.47832 5.94688 4.24332 6.36771 3.77432 7.20833C3.30432 8.04896 3.07032 8.46875 3.01732 8.88021C2.94732 9.42813 3.09132 9.98229 3.41732 10.4208C3.56532 10.6208 3.77432 10.7885 4.09732 10.999C4.57432 11.3083 4.88032 11.8354 4.88032 12.4167C4.88032 12.9979 4.57432 13.525 4.09832 13.8333C3.77432 14.0448 3.56532 14.2125 3.41632 14.4125C3.25588 14.6294 3.13806 14.8771 3.0696 15.1414C3.00114 15.4058 2.98337 15.6816 3.01732 15.9531C3.07032 16.3635 3.30432 16.7844 3.77432 17.625C4.24432 18.4656 4.47832 18.8854 4.79632 19.1385C5.22032 19.475 5.75632 19.6229 6.28632 19.551C6.52832 19.5177 6.77332 19.4156 7.11132 19.2302C7.35404 19.0929 7.62613 19.0217 7.90234 19.0231C8.17855 19.0246 8.44994 19.0987 8.69132 19.2385C9.17732 19.5302 9.46532 20.0667 9.48632 20.6479C9.50132 21.0438 9.53732 21.3146 9.63132 21.5469C9.83532 22.0573 10.2273 22.4635 10.7213 22.675C11.0913 22.8333 11.5613 22.8333 12.5003 22.8333C13.4393 22.8333 13.9093 22.8333 14.2793 22.675C14.5234 22.5711 14.7454 22.4179 14.9325 22.2243C15.1195 22.0307 15.268 21.8005 15.3693 21.5469C15.4633 21.3146 15.4993 21.0438 15.5143 20.6479C15.5343 20.0667 15.8233 19.5292 16.3103 19.2385C16.5516 19.0989 16.8228 19.0249 17.0988 19.0234C17.3748 19.0219 17.6467 19.0931 17.8893 19.2302C18.2273 19.4156 18.4723 19.5177 18.7143 19.551C19.2443 19.624 19.7803 19.475 20.2043 19.1385C20.5223 18.8865 20.7573 18.4656 21.2263 17.625C21.6963 16.7844 21.9303 16.3646 21.9833 15.9531C22.0171 15.6815 21.9992 15.4057 21.9306 15.1413C21.8619 14.877 21.7439 14.6293 21.5833 14.4125C21.4353 14.2125 21.2263 14.0448 20.9033 13.8344C20.4263 13.525 20.1203 12.9979 20.1203 12.4167C20.1203 11.8354 20.4263 11.3083 20.9023 11C21.2263 10.7885 21.4353 10.6208 21.5843 10.4208C21.7447 10.2039 21.8626 9.95624 21.931 9.69189C21.9995 9.42754 22.0173 9.15172 21.9833 8.88021C21.9303 8.46979 21.6963 8.04896 21.2263 7.20833C20.7563 6.36771 20.5223 5.94792 20.2043 5.69479C19.779 5.35854 19.2437 5.21034 18.7143 5.28229C18.4723 5.31563 18.2273 5.41771 17.8893 5.60313C17.6466 5.74045 17.3745 5.81168 17.0983 5.81023C16.8221 5.80877 16.5507 5.73467 16.3093 5.59479C16.073 5.44927 15.8761 5.2436 15.7371 4.99707C15.598 4.75055 15.5213 4.47126 15.5143 4.18542C15.4993 3.78958 15.4633 3.51875 15.3693 3.28646C15.268 3.03285 15.1195 2.80262 14.9325 2.60901C14.7454 2.4154 14.5234 2.26223 14.2793 2.15833ZM12.5003 15.5417C14.1703 15.5417 15.5233 14.1427 15.5233 12.4167C15.5233 10.6906 14.1693 9.29167 12.5003 9.29167C10.8313 9.29167 9.47732 10.6906 9.47732 12.4167C9.47732 14.1427 10.8313 15.5417 12.5003 15.5417Z" fill="white"/>
</svg>
