<svg width="24" height="24" viewBox="0 0 24 24" fill="none" xmlns="http://www.w3.org/2000/svg">
<path d="M19.5 20C20.33 20 21 19.25 21 18.33C21 16.83 19.5 15 19.5 15C19.5 15 18 16.82 18 18.33C18 19.25 18.67 20 19.5 20ZM9.5 22C10.33 22 11 21.25 11 20.33C11 18.83 9.5 17 9.5 17C9.5 17 8 18.82 8 20.33C8 21.25 8.67 22 9.5 22ZM16 20.33C16 18.83 14.5 17 14.5 17C14.5 17 13 18.82 13 20.33C13 21.25 13.67 22 14.5 22C15.33 22 16 21.25 16 20.33ZM4.5 20C5.33 20 6 19.25 6 18.33C6 16.83 4.5 15 4.5 15C4.5 15 3 16.82 3 18.33C3 19.25 3.67 20 4.5 20ZM13 4.07V2H11V4.07C7.06 4.56 4 7.93 4 12H2V14H22V12H20C20 7.93 16.94 4.56 13 4.07Z" fill="black"/>
</svg>
